<svg xmlns="http://www.w3.org/2000/svg" xmlns:xlink="http://www.w3.org/1999/xlink" version="1.1"  x="0px" y="0px" width="32" height="32" viewBox="0 0 24 24" enable-background="new 0 0 24 24" xml:space="preserve" preserveAspectRatio="none" viewbox="0 0 32 32">
<path d="M19.43,12.98c0.04-0.32,0.07-0.64,0.07-0.98s-0.03-0.66-0.07-0.98l2.11-1.65c0.19-0.15,0.24-0.42,0.12-0.64l-2-3.46  c-0.12-0.22-0.391-0.3-0.61-0.22l-2.49,1c-0.52-0.4-1.079-0.73-1.689-0.98l-0.38-2.65C14.46,2.18,14.25,2,14,2h-4  C9.75,2,9.54,2.18,9.51,2.42L9.13,5.07C8.52,5.32,7.96,5.66,7.44,6.05l-2.49-1c-0.23-0.09-0.49,0-0.61,0.22l-2,3.46  C2.21,8.95,2.27,9.22,2.46,9.37l2.11,1.65C4.53,11.34,4.5,11.67,4.5,12s0.03,0.66,0.07,0.98l-2.11,1.65  c-0.19,0.15-0.24,0.42-0.12,0.64l2,3.461c0.12,0.22,0.39,0.3,0.61,0.22l2.49-1c0.52,0.399,1.08,0.729,1.69,0.979l0.38,2.65  C9.54,21.82,9.75,22,10,22h4c0.25,0,0.46-0.18,0.49-0.42l0.38-2.65c0.61-0.25,1.17-0.59,1.689-0.979l2.49,1  c0.23,0.09,0.49,0,0.61-0.22l2-3.461c0.12-0.22,0.07-0.489-0.12-0.64L19.43,12.98z M12,17c-2.76,0-5-2.24-5-5s2.24-5,5-5s5,2.24,5,5  S14.76,17,12,17z M15,12c0,1.65-1.35,3-3,3c-1.66,0-3-1.34-3-3s1.34-3,3-3C13.65,9,15,10.35,15,12z"></path>
</svg>